<?xml version="1.0"?><!DOCTYPE svg  PUBLIC '-//W3C//DTD SVG 1.1//EN'  'http://www.w3.org/Graphics/SVG/1.1/DTD/svg11.dtd'><svg height="128px" style="shape-rendering:geometricPrecision; text-rendering:geometricPrecision; image-rendering:optimizeQuality; fill-rule:evenodd; clip-rule:evenodd" version="1.1" viewBox="0 0 10192 10192" width="128px" xml:space="preserve" xmlns="http://www.w3.org/2000/svg" xmlns:xlink="http://www.w3.org/1999/xlink"><defs><style type="text/css">
   <![CDATA[
    .fil2 {fill:none}
    .fil1 {fill:#04599C}
    .fil0 {fill:#333333}
    .fil3 {fill:#FFFFFF}
   ]]>
  </style></defs>

<rect class="fil3" width="10192" height="10192"/>

<g transform="translate(510, 510) scale(0.9)">
<g id="Layer_x0020_1"><path class="fil0" d="M3774 0c2084,0 3774,726 3774,1621 0,896 -1690,1622 -3774,1622 -2084,0 -3774,-726 -3774,-1622 0,-895 1690,-1621 3774,-1621zm3759 8671c-164,852 -1785,1521 -3759,1521 -2084,0 -3774,-745 -3774,-1664l0 -1242c676,619 2112,1046 3774,1046 478,0 938,-36 1366,-101 332,182 706,284 1094,294 339,8 675,-55 985,-184l314 330zm-2906 -816c-275,28 -560,42 -853,42 -2084,0 -3774,-744 -3774,-1663l0 -1243c676,619 2112,1046 3774,1046 38,0 75,0 113,0l-1 20c-16,638 223,1257 663,1720 25,26 51,52 78,78zm2921 -3916c0,39 -4,77 -10,115 -354,-214 -761,-334 -1183,-345 -639,-16 -1258,223 -1721,663 -352,335 -591,763 -693,1229 -55,1 -111,2 -167,2 -2084,0 -3774,-745 -3774,-1664l0 -1242c676,619 2112,1046 3774,1046 1662,0 3098,-427 3774,-1046l0 1242z"/><path class="fil1" d="M7646 8203l176 -168 -310 -326c-373,286 -823,423 -1268,411 -513,-12 -1021,-221 -1402,-622 -381,-401 -564,-919 -551,-1431 13,-513 221,-1021 622,-1402 401,-382 919,-564 1431,-551 513,12 1021,221 1402,622 382,401 564,919 552,1431 -12,446 -170,888 -475,1246l310 327 177 -168 1756 1847c174,183 167,474 -16,647l0 0c-182,174 -474,167 -647,-16l-1757 -1847zm-1311 -3729c-420,-11 -845,139 -1174,452 -329,313 -500,729 -510,1150 -11,420 139,845 452,1174 313,329 729,500 1150,510 420,11 845,-139 1174,-452 329,-313 500,-729 510,-1150 11,-420 -139,-845 -452,-1174 -312,-329 -729,-500 -1150,-510z"/></g>
</g><g id="boxes"><rect class="fil2" height="10192" width="10192"/></g></svg>
